<svg xmlns="http://www.w3.org/2000/svg" viewBox="0 0 64 100" height="100px" width="64px"><g xmlns="http://www.w3.org/2000/svg" transform="matrix(-1 0 0 -1 64 100)"><g id="surface1"><path style="fill-rule:nonzero;fill:rgb(100%,50.196078%,50.196078%);fill-opacity:1;stroke-width:6.769439;stroke-linecap:round;stroke-linejoin:round;stroke:rgb(0%,0%,0%);stroke-opacity:1;stroke-miterlimit:4;" d="M 334.897704 -47.293747 C 309.903619 -47.261529 289.386727 -36.656226 288.385577 -23.214487 L 288.280043 -23.216614 L 288.294477 -22.216028 L 288.288871 26.95102 L 381.510697 26.938419 L 381.525404 -22.212865 L 381.510971 -23.213451 L 381.44583 -23.21788 C 380.444381 -36.659472 359.919093 -47.278672 334.897704 -47.293747 Z M 334.897704 -47.293747 " transform="matrix(0.187249,0.107296,-0.108108,0.185842,-11.017321,-24.249517)" /><path style="fill-rule:nonzero;fill:rgb(80%,80%,80%);fill-opacity:1;stroke-width:7;stroke-linecap:round;stroke-linejoin:round;stroke:rgb(0%,0%,0%);stroke-opacity:1;stroke-miterlimit:4;" d="M -532.707264 26.999427 L -422.620371 27.002665 L -422.628937 97.085485 L -532.700184 97.073214 Z M -532.707264 26.999427 " transform="matrix(0.187249,0.107296,-0.108108,0.185842,141.136368,62.936669)" /><path style="fill:none;stroke-width:6.999878;stroke-linecap:round;stroke-linejoin:miter;stroke:rgb(0%,0%,0%);stroke-opacity:1;stroke-miterlimit:4;" d="M -519.115494 62.031298 L -436.229809 62.037849 " transform="matrix(0.187249,0.107296,-0.108108,0.185842,141.136368,62.936669)" /><path style="fill:none;stroke-width:6.999878;stroke-linecap:round;stroke-linejoin:miter;stroke:rgb(0%,0%,0%);stroke-opacity:1;stroke-miterlimit:4;" d="M -519.124447 44.527508 L -436.223117 44.525026 " transform="matrix(0.187249,0.107296,-0.108108,0.185842,141.136368,62.936669)" /><path style="fill:none;stroke-width:6.999878;stroke-linecap:round;stroke-linejoin:miter;stroke:rgb(0%,0%,0%);stroke-opacity:1;stroke-miterlimit:4;" d="M -519.113084 79.559885 L -436.211754 79.557403 " transform="matrix(0.187249,0.107296,-0.108108,0.185842,141.136368,62.936669)" /><path style="fill-rule:nonzero;fill:rgb(100%,80%,0%);fill-opacity:1;stroke-width:7;stroke-linecap:round;stroke-linejoin:round;stroke:rgb(0%,0%,0%);stroke-opacity:1;stroke-miterlimit:4;" d="M 288.402612 -77.612323 L 381.397723 -77.620145 L 381.400361 215.385401 L 288.405249 215.393223 Z M 288.402612 -77.612323 " transform="matrix(0.187249,0.107296,-0.108108,0.185842,-29.913077,8.233077)" /><path style="fill:none;stroke-width:7;stroke-linecap:round;stroke-linejoin:miter;stroke:rgb(0%,0%,0%);stroke-opacity:1;stroke-miterlimit:4;" d="M 151.699797 -121.211122 L 151.703865 171.688503 " transform="matrix(0.187249,0.107296,-0.108108,0.185842,-3.22825,34.339202)" /><path style="fill:none;stroke-width:7;stroke-linecap:round;stroke-linejoin:miter;stroke:rgb(0%,0%,0%);stroke-opacity:1;stroke-miterlimit:4;" d="M 182.695134 -121.218984 L 182.699201 171.680641 " transform="matrix(0.187249,0.107296,-0.108108,0.185842,-3.22825,34.339202)" /><path style="fill-rule:nonzero;fill:rgb(100%,80%,66.666667%);fill-opacity:1;stroke-width:7.000303;stroke-linecap:round;stroke-linejoin:round;stroke:rgb(0%,0%,0%);stroke-opacity:1;stroke-miterlimit:4;" d="M 381.414577 -390.26803 L 288.408631 -390.618414 L 311.803937 -430.815077 L 335.205787 -470.986943 L 358.297808 -430.624121 Z M 381.414577 -390.26803 " transform="matrix(0.187249,0.107296,0.108108,-0.185842,-11.017321,-24.249517)" /><path style="fill-rule:nonzero;fill:rgb(0%,0%,0%);fill-opacity:1;stroke-width:7;stroke-linecap:round;stroke-linejoin:round;stroke:rgb(0%,0%,0%);stroke-opacity:1;stroke-miterlimit:4;" d="M 348.849133 -446.778067 L 334.89864 -446.824089 L 320.957249 -446.885875 L 334.994718 -470.982689 L 341.926477 -458.88826 Z M 348.849133 -446.778067 " transform="matrix(0.187249,0.107296,0.108108,-0.185842,-11.017321,-24.249517)" /></g></g></svg>